<svg width="512" height="512" viewBox="0 0 512 512" fill="none" xmlns="http://www.w3.org/2000/svg">
<path d="M368.556 448H143.371M368.556 192H143.371M74.6302 448H437.297C449.079 448 458.63 438.449 458.63 426.667V213.333C458.63 201.551 449.079 192 437.297 192H74.6302C62.8481 192 53.2969 201.551 53.2969 213.333V426.667C53.2969 438.449 62.8481 448 74.6302 448Z" stroke="#1E3050" stroke-width="21.3333" stroke-linecap="round" stroke-linejoin="round"/>
<path d="M362.63 448.001V384.001C362.63 372.219 353.079 362.668 341.297 362.668H170.63C158.848 362.668 149.297 372.219 149.297 384.001V448.001" stroke="#1E3050" stroke-width="21.3333" stroke-linecap="round" stroke-linejoin="round"/>
<path d="M341.292 192L358.485 88.8405C360.652 75.8372 350.625 64 337.442 64H210.03C199.602 64 190.702 71.5395 188.987 81.8262L170.625 192" stroke="#1E3050" stroke-width="21.3333" stroke-linecap="round" stroke-linejoin="round"/>
</svg>
